<?xml version="1.0" standalone="no"?>
<!DOCTYPE svg PUBLIC "-//W3C//DTD SVG 20010904//EN"
 "http://www.w3.org/TR/2001/REC-SVG-20010904/DTD/svg10.dtd">
<svg version="1.0" xmlns="http://www.w3.org/2000/svg"
 width="3071.000000pt" height="3071.000000pt" viewBox="0 0 3071.000000 3071.000000"
 preserveAspectRatio="xMidYMid meet">
<metadata>
Created by potrace 1.14, written by Peter Selinger 2001-2017
</metadata>
<g transform="translate(0.000000,3071.000000) scale(0.100000,-0.100000)"
fill="#000000" stroke="none">
<path d="M0 15355 l0 -15355 15355 0 15355 0 0 15355 0 15355 -15355 0 -15355
0 0 -15355z m6685 1295 c833 -1961 1379 -3236 1388 -3238 10 -2 36 49 86 170
39 95 638 1552 1330 3238 l1259 3065 1291 3 1291 2 0 -374 0 -374 -22 -5 c-13
-3 -229 -40 -480 -83 l-458 -78 0 -3357 0 -3357 28 -6 c15 -3 227 -40 472 -82
244 -41 448 -78 452 -80 5 -3 8 -171 8 -375 l0 -369 -1535 0 -1535 0 0 375 c0
251 3 375 10 375 12 0 922 147 963 156 l27 6 0 3025 c0 2331 -3 3024 -12 3021
-6 -2 -634 -1498 -1394 -3324 l-1382 -3319 -388 -2 -389 -3 -1430 3320 c-801
1860 -1435 3320 -1442 3320 -17 0 -17 30 7 -1945 11 -896 20 -2184 20 -2862
l0 -1231 28 -6 c46 -9 976 -156 990 -156 9 0 12 -82 12 -375 l0 -375 -1535 0
-1535 0 0 373 0 373 428 73 c235 40 448 77 475 83 l47 10 0 3359 c0 2026 -4
3359 -9 3359 -10 0 -865 146 -913 156 l-28 6 0 374 0 374 1251 -2 1251 -3
1373 -3235z m21183 2208 l2 -1028 -435 0 c-353 0 -435 2 -435 13 0 7 -38 271
-85 586 -47 315 -85 574 -85 577 0 2 -434 4 -965 4 l-965 0 0 -3374 0 -3374
28 -6 c15 -3 225 -40 467 -81 242 -41 446 -77 453 -80 10 -3 12 -83 10 -372
l-3 -368 -1535 0 -1535 0 -3 368 c-2 291 0 368 10 372 7 3 211 39 453 80 242
41 452 78 468 81 l27 6 0 3374 0 3374 -965 0 c-531 0 -965 -3 -965 -7 0 -12
-160 -1126 -165 -1150 l-5 -23 -435 0 -435 0 0 1030 0 1030 3548 -2 3547 -3 3
-1027z"/>
</g>
</svg>
